<svg width="200" height="200" viewBox="0 0 200 200" xmlns="http://www.w3.org/2000/svg">
<path d="M100.0,100.0 L100.0,10.0 A90.0,90.0 0 0,1 157.85088487178854,31.05600011929198 z"  fill="#8abfa4" stroke="black" stroke-width="2"/>
<path d="M100.0,100.0 L157.85088487178854,31.05600011929198 A90.0,90.0 0 0,1 188.63269777109872,84.37166400997627 z"  fill="#8abfa4" stroke="black" stroke-width="2"/>
<path d="M100.0,100.0 L188.63269777109872,84.37166400997627 A90.0,90.0 0 0,1 177.94228634059948,145.0 z"  fill="#8abfa4" stroke="black" stroke-width="2"/>
<path d="M100.0,100.0 L177.94228634059948,145.0 A90.0,90.0 0 0,1 130.78181289931018,184.57233587073176 z"  fill="#8abfa4" stroke="black" stroke-width="2"/>
<path d="M100.0,100.0 L130.78181289931018,184.57233587073176 A90.0,90.0 0 0,1 69.21818710068982,184.57233587073176 z"  fill="None" stroke="black" stroke-width="2"/>
<path d="M100.0,100.0 L69.21818710068982,184.57233587073176 A90.0,90.0 0 0,1 22.05771365940052,145.0 z"  fill="None" stroke="black" stroke-width="2"/>
<path d="M100.0,100.0 L22.057713659400534,145.00000000000003 A90.0,90.0 0 0,1 11.367302228901266,84.3716640099763 z"  fill="None" stroke="black" stroke-width="2"/>
<path d="M100.0,100.0 L11.367302228901266,84.3716640099763 A90.0,90.0 0 0,1 42.14911512821145,31.056000119291994 z"  fill="None" stroke="black" stroke-width="2"/>
<path d="M100.0,100.0 L42.14911512821145,31.056000119291994 A90.0,90.0 0 0,1 99.99999999999999,10.0 z"  fill="None" stroke="black" stroke-width="2"/>
</svg>
