<svg width="200" height="200" viewBox="0 0 200 200" xmlns="http://www.w3.org/2000/svg">
<path d="M100.0,100.0 L100.0,10.0 A90.0,90.0 0 0,1 163.63961030678928,36.36038969321073 z"  fill="#47a" stroke="black" stroke-width="2"/>
<path d="M100.0,100.0 L163.63961030678928,36.36038969321073 A90.0,90.0 0 0,1 190.0,100.0 z"  fill="None" stroke="black" stroke-width="2"/>
<path d="M100.0,100.0 L190.0,100.0 A90.0,90.0 0 0,1 163.63961030678928,163.63961030678928 z"  fill="None" stroke="black" stroke-width="2"/>
<path d="M100.0,100.0 L163.63961030678928,163.63961030678928 A90.0,90.0 0 0,1 100.0,190.0 z"  fill="None" stroke="black" stroke-width="2"/>
<path d="M100.0,100.0 L100.0,190.0 A90.0,90.0 0 0,1 36.36038969321073,163.63961030678928 z"  fill="None" stroke="black" stroke-width="2"/>
<path d="M100.0,100.0 L36.36038969321073,163.63961030678928 A90.0,90.0 0 0,1 10.0,100.00000000000001 z"  fill="None" stroke="black" stroke-width="2"/>
<path d="M100.0,100.0 L10.0,100.00000000000001 A90.0,90.0 0 0,1 36.360389693210706,36.36038969321073 z"  fill="None" stroke="black" stroke-width="2"/>
<path d="M100.0,100.0 L36.360389693210706,36.36038969321073 A90.0,90.0 0 0,1 99.99999999999999,10.0 z"  fill="None" stroke="black" stroke-width="2"/>
</svg>
